<svg width="32" height="32" viewBox="0 0 32 32" fill="none" xmlns="http://www.w3.org/2000/svg">
<g clip-path="url(#clip0_856_31)">
<path d="M18.6988 22.1033C18.6988 24.7605 17.7519 26.7816 15.858 28.1667C13.9923 29.5518 11.6603 30.2443 8.86181 30.2443C5.01745 30.2443 2.06352 29.4952 0 27.9971L0.593614 22.5697L3.13767 22.8242L2.96807 26.301C3.90089 26.7816 4.83371 27.1067 5.76653 27.2763C6.69936 27.4459 7.67458 27.5307 8.6922 27.5307C10.5013 27.5307 12.056 27.1491 13.3563 26.3858C14.6849 25.5944 15.3492 24.2658 15.3492 22.4001C15.3492 20.3084 14.6283 18.9515 13.1867 18.3296C11.7451 17.6795 10.1762 17.1566 8.4802 16.7608C7.1799 16.4781 5.89374 16.1248 4.62171 15.7008C3.34968 15.2485 2.28965 14.556 1.44163 13.6231C0.593614 12.662 0.169604 11.277 0.169604 9.46784C0.169604 6.86725 1.03176 4.94507 2.75606 3.70131C4.50864 2.45754 6.57215 1.83566 8.94661 1.83566C10.473 1.83566 12.0136 2.04767 13.5683 2.47168C15.123 2.89569 16.3385 3.4469 17.2148 4.12532L17.4692 9.59504L14.9251 9.84945L14.5011 5.73655C13.6249 5.28428 12.7344 4.98747 11.8299 4.84613C10.9253 4.67653 10.0632 4.59173 9.24342 4.59173C7.51911 4.59173 6.11988 4.98747 5.04572 5.77895C3.99983 6.54217 3.47688 7.65873 3.47688 9.12863C3.47688 10.8529 4.1129 12.0119 5.38493 12.6055C6.65696 13.1991 8.07032 13.6797 9.62503 14.0471C10.8688 14.3298 12.1832 14.6973 13.5683 15.1496C14.9817 15.5736 16.183 16.3227 17.1724 17.3968C18.19 18.4427 18.6988 20.0116 18.6988 22.1033Z" fill="white"/>
<path fill-rule="evenodd" clip-rule="evenodd" d="M17.9899 11.044C21.6489 14.8114 23.3206 20.0816 22.5021 25.2692L20.7569 24.9939C21.4888 20.3556 19.9941 15.6433 16.7225 12.2748L17.9899 11.044Z" fill="white"/>
<path fill-rule="evenodd" clip-rule="evenodd" d="M20.8727 8.34636C24.8932 13.241 26.8769 19.4948 26.4127 25.812L24.6507 25.6825C25.0817 19.8177 23.2401 14.0119 19.5075 9.46775L20.8727 8.34636Z" fill="white"/>
<path fill-rule="evenodd" clip-rule="evenodd" d="M23.7383 5.63506C28.1173 11.6549 30.4258 18.9326 30.3171 26.3759L28.5506 26.3501C28.6537 19.289 26.4638 12.385 22.3096 6.67435L23.7383 5.63506Z" fill="white"/>
</g>
<defs>
<clipPath id="clip0_856_31">
<rect width="32" height="32" fill="white"/>
</clipPath>
</defs>
</svg>
